<svg width="370" height="65" viewBox="0 0 370 65" fill="none" xmlns="http://www.w3.org/2000/svg">
<g filter="url(#filter0_d_153_2165)">
<path d="M23.749 41.9756V15.1689H32.5381V6.2334H5.92676V15.1689H14.7158V41.9756H23.749ZM37.543 42V30.0859C37.543 28.5967 38.5439 27.3516 40.8877 27.3516V18.4893C33.2949 18.4893 28.6807 23.7139 28.6807 30.0371V42H37.543ZM66.5713 30.2568C66.5713 23.6895 61.249 18.3672 54.6816 18.3672C48.1143 18.3672 42.8164 23.6895 42.8164 30.2568C42.8164 36.8486 48.334 42.1465 54.6816 42.1465C57.0742 42.1465 59.3203 41.4385 61.1758 40.2178C59.9307 39.2656 58.5879 37.6299 58.0264 36.4336C57.3428 35.0908 56.8545 33.5771 56.708 32.0391C56.2197 32.6006 55.4873 32.9668 54.6816 32.9668C53.2168 32.9668 51.9961 31.7705 51.9961 30.2812C51.9717 28.792 53.2168 27.5469 54.6816 27.5469C56.2197 27.5469 57.4404 28.8408 57.3916 30.3545C57.2451 35.9453 61.2734 40.9014 66.5713 42.1465V30.2568ZM91.9619 42V29.8174C91.9619 23.4941 86.835 18.2695 80.4873 18.2695C77.9482 18.2695 75.458 19.124 73.4561 20.6865C72.1865 19.6855 70.6729 18.9287 69.0127 18.5381V42.1465C74.2861 40.8525 77.875 38.167 77.875 31.8438V29.793C77.875 28.3525 79.0225 27.1318 80.4873 27.1318C81.9277 27.1318 83.0996 28.3525 83.0996 29.793V42H91.9619ZM112.201 18.5625H100.629C94.0371 18.5625 92.3037 25.7891 97.2598 29.7441C98.8223 30.9648 100.263 32.3809 101.752 33.5771H94.3789V42.0244H106.293C112.641 42.0244 114.716 35.3594 110.541 31.624L105.731 27.2051H112.201V18.5625ZM136.591 32.8447H125.946C124.433 32.8936 123.163 31.6729 123.163 30.1592C123.163 28.6943 124.384 27.4736 125.849 27.4736C128.778 27.4736 129.096 31.3066 125.946 31.2578V32.2832H127.484L135.614 32.2588C136.811 30.8428 137.104 29.0117 136.981 27.2295C136.591 20.8818 131.293 18.3184 125.849 18.3184C119.306 18.3184 114.008 23.6162 114.008 30.1592C114.008 36.7021 119.306 42 125.849 42H125.946H136.591V32.8447ZM148.383 42V29.9639C148.383 28.4746 149.628 27.2051 151.166 27.2051C152.606 27.2051 153.974 28.5234 153.974 29.9639V42H162.86V30.0127C162.86 23.4697 157.66 18.2207 151.166 18.2207C148.578 18.2207 146.015 19.0752 143.964 20.6621C142.694 19.5879 141.107 18.8311 139.423 18.4648V42H148.383ZM178.876 18.6113C178.266 18.4648 177.558 18.416 176.825 18.416C170.282 18.416 164.936 23.8848 164.936 30.2568C164.936 36.7998 170.282 42.0977 176.825 42.0977C183.368 42.0977 188.666 36.7998 188.666 30.2568V6.30664C183.417 7.57617 179.462 12.4346 179.462 17.8301V30.0859C179.462 31.5996 178.412 32.8936 176.825 32.8936C175.214 32.8936 174.213 31.6973 174.14 30.2568C174.164 27.8398 177.191 26.7168 178.876 28.3037V18.6113ZM227.924 42V18.5869C227.924 11.6289 222.162 5.96484 215.253 5.96484H210.272C203.363 5.96484 197.65 11.6289 197.65 18.5869V42H206.977V33.6748H218.549V42H227.924ZM210.272 15.2178H215.253C217.108 15.2178 218.549 16.7314 218.549 18.5869V24.2266H206.977V18.5869C206.977 16.7314 208.466 15.2178 210.272 15.2178ZM230.219 51.4971C235.443 50.2275 239.472 45.3447 239.472 39.9248V30.3789C239.472 28.8652 240.595 27.5225 242.182 27.5225C243.744 27.5225 244.794 28.7188 244.892 30.2812C244.892 32.6738 241.815 33.7969 240.131 32.1123V42C240.766 42.0977 241.4 42.1465 242.182 42.1465C248.725 42.1465 254.145 36.6777 254.145 30.2812C254.145 23.6162 248.773 18.2451 242.182 18.2451C235.59 18.2451 230.219 23.6162 230.219 30.2812V51.4971ZM255.707 51.4971C260.932 50.2275 264.96 45.3447 264.96 39.9248V30.3789C264.96 28.8652 266.083 27.5225 267.67 27.5225C269.232 27.5225 270.282 28.7188 270.38 30.2812C270.38 32.6738 267.304 33.7969 265.619 32.1123V42C266.254 42.0977 266.889 42.1465 267.67 42.1465C274.213 42.1465 279.633 36.6777 279.633 30.2812C279.633 23.6162 274.262 18.2451 267.67 18.2451C261.078 18.2451 255.707 23.6162 255.707 30.2812V51.4971ZM304.657 30.2812C304.657 23.665 299.335 18.3428 292.768 18.3428C286.151 18.3428 280.829 23.665 280.829 30.2812C280.829 36.9463 286.42 42.1709 292.768 42.1709C295.209 42.1709 297.284 41.4629 299.213 40.291C295.624 37.0684 294.867 33.5771 294.672 32.1123C294.257 32.7227 293.524 33.0156 292.768 33.0156C291.303 33.0156 290.082 31.7949 290.082 30.2812C290.082 28.8652 291.303 27.5957 292.768 27.5957C294.281 27.5957 295.502 28.8652 295.404 30.3789C295.307 35.9209 299.335 40.9502 304.657 42.1709V30.2812ZM315.473 42V30.0859C315.473 28.5967 316.474 27.3516 318.817 27.3516V18.4893C311.225 18.4893 306.61 23.7139 306.61 30.0371V42H315.473ZM342.401 32.8447H331.757C330.243 32.8936 328.974 31.6729 328.974 30.1592C328.974 28.6943 330.194 27.4736 331.659 27.4736C334.589 27.4736 334.906 31.3066 331.757 31.2578V32.2832H333.295L341.425 32.2588C342.621 30.8428 342.914 29.0117 342.792 27.2295C342.401 20.8818 337.104 18.3184 331.659 18.3184C325.116 18.3184 319.818 23.6162 319.818 30.1592C319.818 36.7021 325.116 42 331.659 42H331.757H342.401V32.8447ZM356.83 32.9912C355.341 32.9912 354.145 32.0146 354.145 30.6475V6.18457H345.16V30.6475C345.16 36.9463 350.653 42.0488 356.83 42.0488V32.9912Z" fill="url(#paint0_linear_153_2165)"/>
<path d="M23.749 41.9756V42.9756H24.749V41.9756H23.749ZM23.749 15.1689V14.1689H22.749V15.1689H23.749ZM32.5381 15.1689V16.1689H33.5381V15.1689H32.5381ZM32.5381 6.2334H33.5381V5.2334H32.5381V6.2334ZM5.92676 6.2334V5.2334H4.92676V6.2334H5.92676ZM5.92676 15.1689H4.92676V16.1689H5.92676V15.1689ZM14.7158 15.1689H15.7158V14.1689H14.7158V15.1689ZM14.7158 41.9756H13.7158V42.9756H14.7158V41.9756ZM24.749 41.9756V15.1689H22.749V41.9756H24.749ZM23.749 16.1689H32.5381V14.1689H23.749V16.1689ZM33.5381 15.1689V6.2334H31.5381V15.1689H33.5381ZM32.5381 5.2334H5.92676V7.2334H32.5381V5.2334ZM4.92676 6.2334V15.1689H6.92676V6.2334H4.92676ZM5.92676 16.1689H14.7158V14.1689H5.92676V16.1689ZM13.7158 15.1689V41.9756H15.7158V15.1689H13.7158ZM14.7158 42.9756H23.749V40.9756H14.7158V42.9756ZM37.543 42V43H38.543V42H37.543ZM40.8877 27.3516V28.3516H41.8877V27.3516H40.8877ZM40.8877 18.4893H41.8877V17.4893H40.8877V18.4893ZM28.6807 42H27.6807V43H28.6807V42ZM38.543 42V30.0859H36.543V42H38.543ZM38.543 30.0859C38.543 29.5701 38.7107 29.1735 39.0118 28.8978C39.32 28.6155 39.8875 28.3516 40.8877 28.3516V26.3516C39.5442 26.3516 38.4393 26.7101 37.6611 27.4228C36.8757 28.142 36.543 29.1125 36.543 30.0859H38.543ZM41.8877 27.3516V18.4893H39.8877V27.3516H41.8877ZM40.8877 17.4893C36.8533 17.4893 33.539 18.8823 31.2308 21.1838C28.9267 23.4812 27.6807 26.6291 27.6807 30.0371H29.6807C29.6807 27.1219 30.7417 24.4958 32.643 22.6001C34.5401 20.7085 37.3293 19.4893 40.8877 19.4893V17.4893ZM27.6807 30.0371V42H29.6807V30.0371H27.6807ZM28.6807 43H37.543V41H28.6807V43ZM61.1758 40.2178L61.7254 41.0532L62.9021 40.279L61.7832 39.4234L61.1758 40.2178ZM58.0264 36.4336L58.9316 36.0087L58.9248 35.9942L58.9175 35.9799L58.0264 36.4336ZM56.708 32.0391L57.7035 31.9443L57.4826 29.6244L55.9534 31.3829L56.708 32.0391ZM51.9961 30.2812H52.9961V30.2731L52.996 30.2649L51.9961 30.2812ZM57.3916 30.3545L56.3921 30.3223L56.3919 30.3283L57.3916 30.3545ZM66.5713 42.1465L66.3425 43.12L67.5713 43.4088V42.1465H66.5713ZM91.9619 42V43H92.9619V42H91.9619ZM73.4561 20.6865L72.8369 21.4718L73.4529 21.9575L74.0713 21.4748L73.4561 20.6865ZM69.0127 18.5381L69.2417 17.5647L68.0127 17.2755V18.5381H69.0127ZM69.0127 42.1465H68.0127V43.4215L69.251 43.1177L69.0127 42.1465ZM83.0996 42H82.0996V43H83.0996V42ZM67.5713 30.2568C67.5713 23.1372 61.8013 17.3672 54.6816 17.3672V19.3672C60.6967 19.3672 65.5713 24.2417 65.5713 30.2568H67.5713ZM54.6816 17.3672C47.5593 17.3672 41.8164 23.1398 41.8164 30.2568H43.8164C43.8164 24.2391 48.6692 19.3672 54.6816 19.3672V17.3672ZM41.8164 30.2568C41.8164 37.4115 47.7924 43.1465 54.6816 43.1465V41.1465C48.8756 41.1465 43.8164 36.2857 43.8164 30.2568H41.8164ZM54.6816 43.1465C57.2724 43.1465 59.7091 42.3797 61.7254 41.0532L60.6262 39.3824C58.9315 40.4973 56.876 41.1465 54.6816 41.1465V43.1465ZM61.7832 39.4234C60.6503 38.557 59.4172 37.0432 58.9316 36.0087L57.1211 36.8585C57.7586 38.2166 59.2111 39.9742 60.5683 41.0121L61.7832 39.4234ZM58.9175 35.9799C58.2821 34.7318 57.8364 33.3392 57.7035 31.9443L55.7125 32.1339C55.8726 33.8151 56.4034 35.4498 57.1352 36.8873L58.9175 35.9799ZM55.9534 31.3829C55.6443 31.7383 55.1819 31.9668 54.6816 31.9668V33.9668C55.7927 33.9668 56.7951 33.4628 57.4626 32.6952L55.9534 31.3829ZM54.6816 31.9668C53.7632 31.9668 52.9961 31.2123 52.9961 30.2812H50.9961C50.9961 32.3287 52.6704 33.9668 54.6816 33.9668V31.9668ZM52.996 30.2649C52.9808 29.3381 53.7716 28.5469 54.6816 28.5469V26.5469C52.6619 26.5469 50.9626 28.2459 50.9962 30.2976L52.996 30.2649ZM54.6816 28.5469C55.645 28.5469 56.4231 29.3633 56.3921 30.3223L58.3911 30.3867C58.4578 28.3183 56.7945 26.5469 54.6816 26.5469V28.5469ZM56.3919 30.3283C56.2326 36.4115 60.6016 41.7707 66.3425 43.12L66.8001 41.173C61.9453 40.032 58.2577 35.4791 58.3913 30.3807L56.3919 30.3283ZM67.5713 42.1465V30.2568H65.5713V42.1465H67.5713ZM92.9619 42V29.8174H90.9619V42H92.9619ZM92.9619 29.8174C92.9619 22.9515 87.3969 17.2695 80.4873 17.2695V19.2695C86.273 19.2695 90.9619 24.0367 90.9619 29.8174H92.9619ZM80.4873 17.2695C77.7259 17.2695 75.019 18.1982 72.8408 19.8982L74.0713 21.4748C75.8971 20.0499 78.1706 19.2695 80.4873 19.2695V17.2695ZM74.0752 19.9013C72.6957 18.8136 71.0499 17.9901 69.2417 17.5647L68.7837 19.5115C70.2958 19.8673 71.6774 20.5575 72.8369 21.4718L74.0752 19.9013ZM68.0127 18.5381V42.1465H70.0127V18.5381H68.0127ZM69.251 43.1177C71.9752 42.4492 74.4002 41.3914 76.1433 39.5731C77.9123 37.7278 78.875 35.2093 78.875 31.8438H76.875C76.875 34.8014 76.0433 36.7873 74.6995 38.1891C73.3298 39.6179 71.3236 40.5498 68.7744 41.1753L69.251 43.1177ZM78.875 31.8438V29.793H76.875V31.8438H78.875ZM78.875 29.793C78.875 28.8745 79.6046 28.1318 80.4873 28.1318V26.1318C78.4403 26.1318 76.875 27.8306 76.875 29.793H78.875ZM80.4873 28.1318C81.3516 28.1318 82.0996 28.8807 82.0996 29.793H84.0996C84.0996 27.8244 82.5039 26.1318 80.4873 26.1318V28.1318ZM82.0996 29.793V42H84.0996V29.793H82.0996ZM83.0996 43H91.9619V41H83.0996V43ZM112.201 18.5625H113.201V17.5625H112.201V18.5625ZM97.2598 29.7441L96.636 30.5258L96.6441 30.5322L97.2598 29.7441ZM101.752 33.5771V34.5771H104.594L102.378 32.7975L101.752 33.5771ZM94.3789 33.5771V32.5771H93.3789V33.5771H94.3789ZM94.3789 42.0244H93.3789V43.0244H94.3789V42.0244ZM110.541 31.624L109.864 32.3605L109.874 32.3693L110.541 31.624ZM105.731 27.2051V26.2051H103.165L105.055 27.9415L105.731 27.2051ZM112.201 27.2051V28.2051H113.201V27.2051H112.201ZM112.201 17.5625H100.629V19.5625H112.201V17.5625ZM100.629 17.5625C96.9163 17.5625 94.4166 19.6382 93.6502 22.403C92.8957 25.125 93.874 28.3216 96.636 30.5258L97.8835 28.9625C95.6894 27.2116 95.0564 24.8174 95.5776 22.9373C96.0868 21.1001 97.7497 19.5625 100.629 19.5625V17.5625ZM96.6441 30.5322C97.3983 31.1214 98.128 31.7616 98.8707 32.4187C99.6059 33.0692 100.358 33.7404 101.126 34.3568L102.378 32.7975C101.656 32.2176 100.944 31.5826 100.196 30.9209C99.4555 30.2657 98.6837 29.5876 97.8754 28.9561L96.6441 30.5322ZM101.752 32.5771H94.3789V34.5771H101.752V32.5771ZM93.3789 33.5771V42.0244H95.3789V33.5771H93.3789ZM94.3789 43.0244H106.293V41.0244H94.3789V43.0244ZM106.293 43.0244C109.854 43.0244 112.354 41.1259 113.301 38.5724C114.238 36.0438 113.593 33.0132 111.208 30.8788L109.874 32.3693C111.664 33.9702 112.069 36.1397 111.425 37.8775C110.791 39.5904 109.079 41.0244 106.293 41.0244V43.0244ZM111.218 30.8876L106.408 26.4687L105.055 27.9415L109.864 32.3604L111.218 30.8876ZM105.731 28.2051H112.201V26.2051H105.731V28.2051ZM113.201 27.2051V18.5625H111.201V27.2051H113.201ZM136.591 32.8447H137.591V31.8447H136.591V32.8447ZM125.946 32.8447V31.8447H125.93L125.914 31.8452L125.946 32.8447ZM125.946 31.2578L125.962 30.2579L124.946 30.2422V31.2578H125.946ZM125.946 32.2832H124.946V33.2832H125.946V32.2832ZM127.484 32.2832V33.2832L127.487 33.2832L127.484 32.2832ZM135.614 32.2588L135.617 33.2588L136.08 33.2574L136.378 32.9041L135.614 32.2588ZM136.981 27.2295L135.983 27.2909L135.984 27.2978L136.981 27.2295ZM136.591 42V43H137.591V42H136.591ZM136.591 31.8447H125.946V33.8447H136.591V31.8447ZM125.914 31.8452C124.961 31.876 124.163 31.1036 124.163 30.1592H122.163C122.163 32.2421 123.905 33.9111 125.979 33.8442L125.914 31.8452ZM124.163 30.1592C124.163 29.2466 124.936 28.4736 125.849 28.4736V26.4736C123.832 26.4736 122.163 28.1421 122.163 30.1592H124.163ZM125.849 28.4736C126.816 28.4736 127.157 29.0493 127.179 29.4384C127.19 29.6469 127.12 29.8304 126.979 29.9656C126.841 30.0987 126.545 30.267 125.962 30.2579L125.931 32.2577C126.923 32.2731 127.768 31.9806 128.364 31.4087C128.958 30.8389 129.216 30.0733 129.176 29.3296C129.093 27.8145 127.811 26.4736 125.849 26.4736V28.4736ZM124.946 31.2578V32.2832H126.946V31.2578H124.946ZM125.946 33.2832H127.484V31.2832H125.946V33.2832ZM127.487 33.2832L135.617 33.2588L135.611 31.2588L127.481 31.2832L127.487 33.2832ZM136.378 32.9041C137.808 31.2113 138.11 29.0781 137.979 27.1612L135.984 27.2978C136.097 28.9453 135.813 30.4743 134.85 31.6134L136.378 32.9041ZM137.98 27.1681C137.765 23.6888 136.186 21.1821 133.883 19.5737C131.615 17.9899 128.711 17.3184 125.849 17.3184V19.3184C128.431 19.3184 130.898 19.9286 132.738 21.2134C134.542 22.4736 135.807 24.4225 135.983 27.2909L137.98 27.1681ZM125.849 17.3184C118.753 17.3184 113.008 23.0639 113.008 30.1592H115.008C115.008 24.1685 119.858 19.3184 125.849 19.3184V17.3184ZM113.008 30.1592C113.008 37.2544 118.753 43 125.849 43V41C119.858 41 115.008 36.1499 115.008 30.1592H113.008ZM125.849 43H125.946V41H125.849V43ZM125.946 43H136.591V41H125.946V43ZM137.591 42V32.8447H135.591V42H137.591ZM148.383 42V43H149.383V42H148.383ZM153.974 42H152.974V43H153.974V42ZM162.86 42V43H163.86V42H162.86ZM143.964 20.6621L143.318 21.4255L143.936 21.9483L144.576 21.453L143.964 20.6621ZM139.423 18.4648L139.635 17.4877L138.423 17.2241V18.4648H139.423ZM139.423 42H138.423V43H139.423V42ZM149.383 42V29.9639H147.383V42H149.383ZM149.383 29.9639C149.383 29.0269 150.18 28.2051 151.166 28.2051V26.2051C149.076 26.2051 147.383 27.9223 147.383 29.9639H149.383ZM151.166 28.2051C151.585 28.2051 152.045 28.4021 152.411 28.7597C152.777 29.1171 152.974 29.5604 152.974 29.9639H154.974C154.974 28.9269 154.486 27.9908 153.809 27.3289C153.131 26.6672 152.188 26.2051 151.166 26.2051V28.2051ZM152.974 29.9639V42H154.974V29.9639H152.974ZM153.974 43H162.86V41H153.974V43ZM163.86 42V30.0127H161.86V42H163.86ZM163.86 30.0127C163.86 22.9256 158.221 17.2207 151.166 17.2207V19.2207C157.1 19.2207 161.86 24.0139 161.86 30.0127H163.86ZM151.166 17.2207C148.362 17.2207 145.582 18.1455 143.352 19.8712L144.576 21.453C146.447 20.0049 148.794 19.2207 151.166 19.2207V17.2207ZM144.61 19.8987C143.206 18.7111 141.467 17.886 139.635 17.4877L139.21 19.442C140.747 19.7762 142.182 20.4647 143.318 21.4255L144.61 19.8987ZM138.423 18.4648V42H140.423V18.4648H138.423ZM139.423 43H148.383V41H139.423V43ZM178.876 18.6113H179.876V17.8229L179.109 17.6389L178.876 18.6113ZM188.666 6.30664H189.666V5.03595L188.431 5.33467L188.666 6.30664ZM174.14 30.2568L173.14 30.2467L173.139 30.2772L173.141 30.3076L174.14 30.2568ZM178.876 28.3037L178.19 29.0316L179.876 30.6196V28.3037H178.876ZM179.109 17.6389C178.389 17.466 177.592 17.416 176.825 17.416V19.416C177.524 19.416 178.142 19.4637 178.643 19.5837L179.109 17.6389ZM176.825 17.416C169.726 17.416 163.936 23.3365 163.936 30.2568H165.936C165.936 24.433 170.839 19.416 176.825 19.416V17.416ZM163.936 30.2568C163.936 37.3574 169.735 43.0977 176.825 43.0977V41.0977C170.829 41.0977 165.936 36.2422 165.936 30.2568H163.936ZM176.825 43.0977C183.92 43.0977 189.666 37.3521 189.666 30.2568H187.666C187.666 36.2475 182.816 41.0977 176.825 41.0977V43.0977ZM189.666 30.2568V6.30664H187.666V30.2568H189.666ZM188.431 5.33467C182.75 6.70873 178.462 11.956 178.462 17.8301H180.462C180.462 12.9131 184.084 8.44361 188.901 7.27862L188.431 5.33467ZM178.462 17.8301V30.0859H180.462V17.8301H178.462ZM178.462 30.0859C178.462 31.1503 177.762 31.8936 176.825 31.8936V33.8936C179.062 33.8936 180.462 32.0489 180.462 30.0859H178.462ZM176.825 31.8936C175.827 31.8936 175.189 31.199 175.138 30.2061L173.141 30.3076C173.237 32.1955 174.601 33.8936 176.825 33.8936V31.8936ZM175.14 30.2669C175.147 29.5257 175.601 28.9671 176.254 28.7085C176.919 28.445 177.671 28.5427 178.19 29.0316L179.562 27.5758C178.396 26.4778 176.793 26.3436 175.517 26.8491C174.229 27.3596 173.157 28.5709 173.14 30.2467L175.14 30.2669ZM179.876 28.3037V18.6113H177.876V28.3037H179.876ZM227.924 42V43H228.924V42H227.924ZM197.65 42H196.65V43H197.65V42ZM206.977 42V43H207.977V42H206.977ZM206.977 33.6748V32.6748H205.977V33.6748H206.977ZM218.549 33.6748H219.549V32.6748H218.549V33.6748ZM218.549 42H217.549V43H218.549V42ZM218.549 24.2266V25.2266H219.549V24.2266H218.549ZM206.977 24.2266H205.977V25.2266H206.977V24.2266ZM228.924 42V18.5869H226.924V42H228.924ZM228.924 18.5869C228.924 11.0691 222.707 4.96484 215.253 4.96484V6.96484C221.617 6.96484 226.924 12.1887 226.924 18.5869H228.924ZM215.253 4.96484H210.272V6.96484H215.253V4.96484ZM210.272 4.96484C202.814 4.96484 196.65 11.0741 196.65 18.5869H198.65C198.65 12.1837 203.913 6.96484 210.272 6.96484V4.96484ZM196.65 18.5869V42H198.65V18.5869H196.65ZM197.65 43H206.977V41H197.65V43ZM207.977 42V33.6748H205.977V42H207.977ZM206.977 34.6748H218.549V32.6748H206.977V34.6748ZM217.549 33.6748V42H219.549V33.6748H217.549ZM218.549 43H227.924V41H218.549V43ZM210.272 16.2178H215.253V14.2178H210.272V16.2178ZM215.253 16.2178C216.528 16.2178 217.549 17.2548 217.549 18.5869H219.549C219.549 16.2081 217.689 14.2178 215.253 14.2178V16.2178ZM217.549 18.5869V24.2266H219.549V18.5869H217.549ZM218.549 23.2266H206.977V25.2266H218.549V23.2266ZM207.977 24.2266V18.5869H205.977V24.2266H207.977ZM207.977 18.5869C207.977 17.2646 209.037 16.2178 210.272 16.2178V14.2178C207.895 14.2178 205.977 16.1983 205.977 18.5869H207.977ZM230.219 51.4971H229.219V52.7692L230.455 52.4688L230.219 51.4971ZM244.892 30.2812H245.892V30.25L245.89 30.2189L244.892 30.2812ZM240.131 32.1123L240.838 31.4052L239.131 29.6981V32.1123H240.131ZM240.131 42H239.131V42.8579L239.979 42.9884L240.131 42ZM230.455 52.4688C236.106 51.0955 240.472 45.8277 240.472 39.9248H238.472C238.472 44.8618 234.78 49.3596 229.983 50.5253L230.455 52.4688ZM240.472 39.9248V30.3789H238.472V39.9248H240.472ZM240.472 30.3789C240.472 29.3297 241.231 28.5225 242.182 28.5225V26.5225C239.959 26.5225 238.472 28.4008 238.472 30.3789H240.472ZM242.182 28.5225C243.116 28.5225 243.822 29.2019 243.894 30.3436L245.89 30.2189C245.766 28.2356 244.372 26.5225 242.182 26.5225V28.5225ZM243.892 30.2812C243.892 30.9935 243.448 31.5421 242.79 31.79C242.125 32.0408 241.364 31.9316 240.838 31.4052L239.424 32.8194C240.582 33.9776 242.202 34.1491 243.496 33.6614C244.797 33.1708 245.892 31.9615 245.892 30.2812H243.892ZM239.131 32.1123V42H241.131V32.1123H239.131ZM239.979 42.9884C240.669 43.0945 241.355 43.1465 242.182 43.1465V41.1465C241.446 41.1465 240.863 41.1008 240.283 41.0116L239.979 42.9884ZM242.182 43.1465C249.274 43.1465 255.145 37.2327 255.145 30.2812H253.145C253.145 36.1228 248.175 41.1465 242.182 41.1465V43.1465ZM255.145 30.2812C255.145 23.0679 249.33 17.2451 242.182 17.2451V19.2451C248.217 19.2451 253.145 24.1645 253.145 30.2812H255.145ZM242.182 17.2451C235.034 17.2451 229.219 23.0679 229.219 30.2812H231.219C231.219 24.1645 236.146 19.2451 242.182 19.2451V17.2451ZM229.219 30.2812V51.4971H231.219V30.2812H229.219ZM255.707 51.4971H254.707V52.7692L255.943 52.4688L255.707 51.4971ZM270.38 30.2812H271.38V30.25L271.378 30.2189L270.38 30.2812ZM265.619 32.1123L266.326 31.4052L264.619 29.6981V32.1123H265.619ZM265.619 42H264.619V42.8579L265.467 42.9884L265.619 42ZM255.943 52.4688C261.595 51.0955 265.96 45.8277 265.96 39.9248H263.96C263.96 44.8618 260.269 49.3596 255.471 50.5253L255.943 52.4688ZM265.96 39.9248V30.3789H263.96V39.9248H265.96ZM265.96 30.3789C265.96 29.3297 266.719 28.5225 267.67 28.5225V26.5225C265.447 26.5225 263.96 28.4008 263.96 30.3789H265.96ZM267.67 28.5225C268.604 28.5225 269.31 29.2019 269.382 30.3436L271.378 30.2189C271.254 28.2356 269.861 26.5225 267.67 26.5225V28.5225ZM269.38 30.2812C269.38 30.9935 268.936 31.5421 268.279 31.79C267.613 32.0408 266.853 31.9316 266.326 31.4052L264.912 32.8194C266.07 33.9776 267.69 34.1491 268.984 33.6614C270.286 33.1708 271.38 31.9615 271.38 30.2812H269.38ZM264.619 32.1123V42H266.619V32.1123H264.619ZM265.467 42.9884C266.157 43.0945 266.843 43.1465 267.67 43.1465V41.1465C266.934 41.1465 266.351 41.1008 265.771 41.0116L265.467 42.9884ZM267.67 43.1465C274.763 43.1465 280.633 37.2327 280.633 30.2812H278.633C278.633 36.1228 273.663 41.1465 267.67 41.1465V43.1465ZM280.633 30.2812C280.633 23.0679 274.818 17.2451 267.67 17.2451V19.2451C273.705 19.2451 278.633 24.1645 278.633 30.2812H280.633ZM267.67 17.2451C260.522 17.2451 254.707 23.0679 254.707 30.2812H256.707C256.707 24.1645 261.634 19.2451 267.67 19.2451V17.2451ZM254.707 30.2812V51.4971H256.707V30.2812H254.707ZM299.213 40.291L299.732 41.1456L300.883 40.4465L299.881 39.547L299.213 40.291ZM294.672 32.1123L295.663 31.9801L295.317 29.3851L293.845 31.55L294.672 32.1123ZM295.404 30.3789L294.406 30.3145L294.405 30.3379L294.404 30.3613L295.404 30.3789ZM304.657 42.1709L304.434 43.1456L305.657 43.4262V42.1709H304.657ZM305.657 30.2812C305.657 23.1154 299.89 17.3428 292.768 17.3428V19.3428C298.78 19.3428 303.657 24.2147 303.657 30.2812H305.657ZM292.768 17.3428C285.599 17.3428 279.829 23.1128 279.829 30.2812H281.829C281.829 24.2173 286.704 19.3428 292.768 19.3428V17.3428ZM279.829 30.2812C279.829 37.521 285.89 43.1709 292.768 43.1709V41.1709C286.949 41.1709 281.829 36.3716 281.829 30.2812H279.829ZM292.768 43.1709C295.421 43.1709 297.674 42.3963 299.732 41.1456L298.694 39.4364C296.895 40.5295 294.997 41.1709 292.768 41.1709V43.1709ZM299.881 39.547C296.527 36.5354 295.839 33.2999 295.663 31.9801L293.681 32.2445C293.895 33.8544 294.721 37.6014 298.545 41.0351L299.881 39.547ZM293.845 31.55C293.665 31.815 293.29 32.0156 292.768 32.0156V34.0156C293.758 34.0156 294.849 33.6303 295.499 32.6746L293.845 31.55ZM292.768 32.0156C291.867 32.0156 291.082 31.2544 291.082 30.2812H289.082C289.082 32.3355 290.739 34.0156 292.768 34.0156V32.0156ZM291.082 30.2812C291.082 29.4058 291.867 28.5957 292.768 28.5957V26.5957C290.739 26.5957 289.082 28.3247 289.082 30.2812H291.082ZM292.768 28.5957C293.718 28.5957 294.466 29.3919 294.406 30.3145L296.402 30.4433C296.538 28.3386 294.844 26.5957 292.768 26.5957V28.5957ZM294.404 30.3613C294.298 36.3836 298.658 41.8209 304.434 43.1456L304.881 41.1962C300.012 40.0795 296.315 35.4582 296.404 30.3965L294.404 30.3613ZM305.657 42.1709V30.2812H303.657V42.1709H305.657ZM315.473 42V43H316.473V42H315.473ZM318.817 27.3516V28.3516H319.817V27.3516H318.817ZM318.817 18.4893H319.817V17.4893H318.817V18.4893ZM306.61 42H305.61V43H306.61V42ZM316.473 42V30.0859H314.473V42H316.473ZM316.473 30.0859C316.473 29.5701 316.64 29.1735 316.941 28.8978C317.25 28.6155 317.817 28.3516 318.817 28.3516V26.3516C317.474 26.3516 316.369 26.7101 315.591 27.4228C314.805 28.142 314.473 29.1125 314.473 30.0859H316.473ZM319.817 27.3516V18.4893H317.817V27.3516H319.817ZM318.817 17.4893C314.783 17.4893 311.469 18.8823 309.16 21.1838C306.856 23.4812 305.61 26.6291 305.61 30.0371H307.61C307.61 27.1219 308.671 24.4958 310.573 22.6001C312.47 20.7085 315.259 19.4893 318.817 19.4893V17.4893ZM305.61 30.0371V42H307.61V30.0371H305.61ZM306.61 43H315.473V41H306.61V43ZM342.401 32.8447H343.401V31.8447H342.401V32.8447ZM331.757 32.8447V31.8447H331.741L331.725 31.8452L331.757 32.8447ZM331.757 31.2578L331.772 30.2579L330.757 30.2422V31.2578H331.757ZM331.757 32.2832H330.757V33.2832H331.757V32.2832ZM333.295 32.2832V33.2832L333.298 33.2832L333.295 32.2832ZM341.425 32.2588L341.428 33.2588L341.89 33.2574L342.189 32.9041L341.425 32.2588ZM342.792 27.2295L341.794 27.2909L341.794 27.2978L342.792 27.2295ZM342.401 42V43H343.401V42H342.401ZM342.401 31.8447H331.757V33.8447H342.401V31.8447ZM331.725 31.8452C330.771 31.876 329.974 31.1036 329.974 30.1592H327.974C327.974 32.2421 329.715 33.9111 331.789 33.8442L331.725 31.8452ZM329.974 30.1592C329.974 29.2466 330.747 28.4736 331.659 28.4736V26.4736C329.642 26.4736 327.974 28.1421 327.974 30.1592H329.974ZM331.659 28.4736C332.626 28.4736 332.968 29.0493 332.989 29.4384C333.001 29.6469 332.931 29.8304 332.79 29.9656C332.651 30.0987 332.355 30.267 331.772 30.2579L331.741 32.2577C332.733 32.2731 333.579 31.9806 334.175 31.4087C334.768 30.8389 335.027 30.0733 334.986 29.3296C334.904 27.8145 333.622 26.4736 331.659 26.4736V28.4736ZM330.757 31.2578V32.2832H332.757V31.2578H330.757ZM331.757 33.2832H333.295V31.2832H331.757V33.2832ZM333.298 33.2832L341.428 33.2588L341.422 31.2588L333.292 31.2832L333.298 33.2832ZM342.189 32.9041C343.619 31.2113 343.921 29.0781 343.79 27.1612L341.794 27.2978C341.907 28.9453 341.623 30.4743 340.661 31.6134L342.189 32.9041ZM343.79 27.1681C343.576 23.6888 341.996 21.1821 339.693 19.5737C337.425 17.9899 334.522 17.3184 331.659 17.3184V19.3184C334.241 19.3184 336.708 19.9286 338.548 21.2134C340.353 22.4736 341.617 24.4225 341.794 27.2909L343.79 27.1681ZM331.659 17.3184C324.564 17.3184 318.818 23.0639 318.818 30.1592H320.818C320.818 24.1685 325.668 19.3184 331.659 19.3184V17.3184ZM318.818 30.1592C318.818 37.2544 324.564 43 331.659 43V41C325.668 41 320.818 36.1499 320.818 30.1592H318.818ZM331.659 43H331.757V41H331.659V43ZM331.757 43H342.401V41H331.757V43ZM343.401 42V32.8447H341.401V42H343.401ZM356.83 32.9912H357.83V31.9912H356.83V32.9912ZM354.145 6.18457H355.145V5.18457H354.145V6.18457ZM345.16 6.18457V5.18457H344.16V6.18457H345.16ZM356.83 42.0488V43.0488H357.83V42.0488H356.83ZM356.83 31.9912C355.741 31.9912 355.145 31.3215 355.145 30.6475H353.145C353.145 32.7078 354.941 33.9912 356.83 33.9912V31.9912ZM355.145 30.6475V6.18457H353.145V30.6475H355.145ZM354.145 5.18457H345.16V7.18457H354.145V5.18457ZM344.16 6.18457V30.6475H346.16V6.18457H344.16ZM344.16 30.6475C344.16 37.5351 350.138 43.0488 356.83 43.0488V41.0488C351.168 41.0488 346.16 36.3575 346.16 30.6475H344.16ZM357.83 42.0488V32.9912H355.83V42.0488H357.83Z" fill="black"/>
</g>
<defs>
<filter id="filter0_d_153_2165" x="0.926758" y="0.964844" width="368.903" height="63.5322" filterUnits="userSpaceOnUse" color-interpolation-filters="sRGB">
<feFlood flood-opacity="0" result="BackgroundImageFix"/>
<feColorMatrix in="SourceAlpha" type="matrix" values="0 0 0 0 0 0 0 0 0 0 0 0 0 0 0 0 0 0 127 0" result="hardAlpha"/>
<feOffset dx="4" dy="4"/>
<feGaussianBlur stdDeviation="4.5"/>
<feComposite in2="hardAlpha" operator="out"/>
<feColorMatrix type="matrix" values="0 0 0 0 0 0 0 0 0 0 0 0 0 0 0 0 0 0 0.5 0"/>
<feBlend mode="normal" in2="BackgroundImageFix" result="effect1_dropShadow_153_2165"/>
<feBlend mode="normal" in="SourceGraphic" in2="effect1_dropShadow_153_2165" result="shape"/>
</filter>
<linearGradient id="paint0_linear_153_2165" x1="-11.7401" y1="36.9999" x2="380.408" y2="36.9999" gradientUnits="userSpaceOnUse">
<stop stop-color="#6DCDFD"/>
<stop offset="0.255208" stop-color="#F0A9B9"/>
<stop offset="0.479167" stop-color="white"/>
<stop offset="0.78125" stop-color="#FCF233"/>
<stop offset="1" stop-color="#9A59CF"/>
</linearGradient>
</defs>
</svg>
